<svg xmlns="http://www.w3.org/2000/svg" viewBox="0 0 1100 720"><defs>
  <linearGradient id="gold" x1="0" y1="0" x2="1" y2="1"><stop offset="0" stop-color="#f1cf72"/><stop offset="1" stop-color="#b7862a"/></linearGradient>
  <linearGradient id="goldv" x1="0" y1="0" x2="0" y2="1"><stop offset="0" stop-color="#f1cf72"/><stop offset="1" stop-color="#b7862a"/></linearGradient>
  <linearGradient id="ink" x1="0" y1="0" x2="1" y2="1"><stop offset="0" stop-color="#35353d"/><stop offset="1" stop-color="#17171b"/></linearGradient>
</defs><g transform="translate(20 10)"><g>
  <!-- left leg + crossbar: gold -->
  <polygon points="240,60 360,60 155,600 35,600" fill="url(#gold)"/>
  <polygon points="231,400 509,400 532,460 208,460" fill="url(#goldv)"/>
  <!-- right leg: charcoal, becomes the cart's spine -->
  <polygon points="380,60 500,60 705,600 585,600" fill="url(#ink)"/>
  <!-- cart basket: gold frame + grid -->
  <path d="M596 238 H912 L850 462 H664 Z" fill="none" stroke="url(#gold)" stroke-width="32" stroke-linejoin="miter"/>
  <g stroke="url(#gold)" stroke-width="14">
    <line x1="660" y1="350" x2="888" y2="350"/>
    <line x1="700" y1="238" x2="676" y2="462"/><line x1="755" y1="238" x2="749" y2="462"/>
    <line x1="810" y1="238" x2="821" y2="462"/>
  </g>
  <!-- handle -->
  <path d="M912 238 L944 150 H1034" fill="none" stroke="url(#gold)" stroke-width="36" stroke-linejoin="miter"/>
  <!-- base + wheels -->
  <path d="M664 462 L706 560 H872" fill="none" stroke="url(#gold)" stroke-width="34" stroke-linejoin="miter"/>
  <g><circle cx="740" cy="626" r="36" fill="url(#ink)"/><circle cx="740" cy="626" r="13" fill="#faf6ee"/>
     <circle cx="846" cy="626" r="36" fill="url(#ink)"/><circle cx="846" cy="626" r="13" fill="#faf6ee"/></g>
</g></g></svg>