<svg xmlns="http://www.w3.org/2000/svg" viewBox="0 0 1240 1100"><defs>
  <linearGradient id="gold" x1="0" y1="0" x2="1" y2="1"><stop offset="0" stop-color="#f1cf72"/><stop offset="1" stop-color="#b7862a"/></linearGradient>
  <linearGradient id="goldv" x1="0" y1="0" x2="0" y2="1"><stop offset="0" stop-color="#f1cf72"/><stop offset="1" stop-color="#b7862a"/></linearGradient>
  <linearGradient id="ink" x1="0" y1="0" x2="1" y2="1"><stop offset="0" stop-color="#35353d"/><stop offset="1" stop-color="#17171b"/></linearGradient>
</defs><rect width="1240" height="1100" fill="#1e1e23"/><g transform="translate(90.0 20)"><g>
  <!-- left leg + crossbar: gold -->
  <polygon points="240,60 360,60 155,600 35,600" fill="url(#gold)"/>
  <polygon points="231,400 509,400 532,460 208,460" fill="url(#goldv)"/>
  <!-- right leg: charcoal, becomes the cart's spine -->
  <polygon points="380,60 500,60 705,600 585,600" fill="url(#goldv)"/>
  <!-- cart basket: gold frame + grid -->
  <path d="M596 238 H912 L850 462 H664 Z" fill="none" stroke="url(#gold)" stroke-width="32" stroke-linejoin="miter"/>
  <g stroke="url(#gold)" stroke-width="14">
    <line x1="660" y1="350" x2="888" y2="350"/>
    <line x1="700" y1="238" x2="676" y2="462"/><line x1="755" y1="238" x2="749" y2="462"/>
    <line x1="810" y1="238" x2="821" y2="462"/>
  </g>
  <!-- handle -->
  <path d="M912 238 L944 150 H1034" fill="none" stroke="url(#gold)" stroke-width="36" stroke-linejoin="miter"/>
  <!-- base + wheels -->
  <path d="M664 462 L706 560 H872" fill="none" stroke="url(#gold)" stroke-width="34" stroke-linejoin="miter"/>
  <g><circle cx="740" cy="626" r="36" fill="url(#goldv)"/><circle cx="740" cy="626" r="13" fill="#1e1e23"/>
     <circle cx="846" cy="626" r="36" fill="url(#goldv)"/><circle cx="846" cy="626" r="13" fill="#1e1e23"/></g>
</g></g><g transform="translate(183.0 800) scale(1.0)" fill="none" stroke="#faf6ee" stroke-width="26" stroke-linejoin="miter" stroke-miterlimit="2" stroke-linecap="butt"><path transform="translate(0 0)" d="M0 100 L45 0 L90 100 M21 68 H69"/><path transform="translate(148 0)" d="M0 0 L45 100 L90 0"/><path transform="translate(296 0)" d="M82 0 H0 V100 H82 M0 50 H72"/><path transform="translate(436 0)" d="M0 100 V0 H52 Q84 0 84 26 Q84 52 52 52 H0 M44 52 L84 100"/><path transform="translate(578 0)" d="M0 0 V100"/><path transform="translate(636 0)" d="M0 0 L90 100 M90 0 L0 100"/><path transform="translate(784 0)" d="M0 100 L45 0 L90 100 M21 68 H69"/></g><g><line x1="183.0" y1="998" x2="313.0" y2="998" stroke="#b7862a" stroke-width="4"/><line x1="927.0" y1="998" x2="1057.0" y2="998" stroke="#b7862a" stroke-width="4"/><text x="620.0" y="1010" text-anchor="middle" font-family="Montserrat, 'Segoe UI', Arial, sans-serif" font-weight="600" font-size="34" letter-spacing="6" fill="#d9d3c4">YOUR WORLD · OUR STORE</text></g></svg>